HIERARCHY
ROOT hip
{
  OFFSET 0 0 0
  CHANNELS 6 Xposition Yposition Zposition Zrotation Yrotation Xrotation
  JOINT abdomen
  {
    OFFSET 0 20.6881 -0.73152
    CHANNELS 3 Zrotation Xrotation Yrotation
    JOINT chest
    {
      OFFSET 0 11.7043 -0.48768
      CHANNELS 3 Zrotation Xrotation Yrotation
      JOINT neck
      {
        OFFSET 0 22.1894 -2.19456
        CHANNELS 3 Zrotation Xrotation Yrotation
        JOINT head
        {
          OFFSET -0.24384 7.07133 1.2192
          CHANNELS 3 Zrotation Xrotation Yrotation
          JOINT leftEye
          {
            OFFSET 4.14528 8.04674 8.04672
            CHANNELS 3 Zrotation Xrotation Yrotation
            End Site
            {
              OFFSET 1 0 0
            }
          }
          JOINT rightEye
          {
            OFFSET -3.6576 8.04674 8.04672
            CHANNELS 3 Zrotation Xrotation Yrotation
            End Site
            {
              OFFSET 1 0 0
            }
          }
        }
      }
      JOINT rCollar
      {
        OFFSET -2.68224 19.2634 -4.8768
        CHANNELS 3 Zrotation Xrotation Yrotation
        JOINT rShldr
        {
          OFFSET -8.77824 -1.95073 1.46304
          CHANNELS 3 Zrotation Xrotation Yrotation
          JOINT rForeArm
          {
            OFFSET -28.1742 -1.7115 0.48768
            CHANNELS 3 Zrotation Xrotation Yrotation
            JOINT rHand
            {
              OFFSET -22.5879 0.773209 7.07136
              CHANNELS 3 Zrotation Xrotation Yrotation
              JOINT rThumb1
              {
                OFFSET -1.2192 -0.487915 3.41376
                CHANNELS 3 Zrotation Xrotation Yrotation
                JOINT rThumb2
                {
                  OFFSET -3.37035 -0.52449 3.41376
                  CHANNELS 3 Zrotation Xrotation Yrotation
                  End Site
                  {
                    OFFSET -1.78271 -1.18214 1.43049
                  }
                }
              }
              JOINT rIndex1
              {
                OFFSET -7.75947 0.938293 5.60832
                CHANNELS 3 Zrotation Xrotation Yrotation
                JOINT rIndex2
                {
                  OFFSET -2.54057 -0.884171 1.56538
                  CHANNELS 3 Zrotation Xrotation Yrotation
                  End Site
                  {
                    OFFSET -1.62519 -0.234802 1.16502
                  }
                }
              }
              JOINT rMid1
              {
                OFFSET -8.24714 1.18213 3.41376
                CHANNELS 3 Zrotation Xrotation Yrotation
                JOINT rMid2
                {
                  OFFSET -3.10165 -0.590103 1.0647
                  CHANNELS 3 Zrotation Xrotation Yrotation
                  End Site
                  {
                    OFFSET -2.48547 -0.328903 0.83742
                  }
                }
              }
              JOINT rRing1
              {
                OFFSET -8.82822 0.546677 1.51678
                CHANNELS 3 Zrotation Xrotation Yrotation
                JOINT rRing2
                {
                  OFFSET -2.60934 -0.819778 -0.0198488
                  CHANNELS 3 Zrotation Xrotation Yrotation
                  End Site
                  {
                    OFFSET -2.33842 -0.294052 0.168128
                  }
                }
              }
              JOINT rPinky1
              {
                OFFSET -8.27202 -0.0477905 -0.4584
                CHANNELS 3 Zrotation Xrotation Yrotation
                JOINT rPinky2
                {
                  OFFSET -1.82734 -0.647385 -0.700984
                  CHANNELS 3 Zrotation Xrotation Yrotation
                  End Site
                  {
                    OFFSET -1.69225 -0.51767 -0.607171
                  }
                }
              }
            }
          }
        }
      }
      JOINT lCollar
      {
        OFFSET 2.68224 19.2634 -4.8768
        CHANNELS 3 Zrotation Xrotation Yrotation
        JOINT lShldr
        {
          OFFSET 8.77824 -1.95073 1.46304
          CHANNELS 3 Zrotation Xrotation Yrotation
          JOINT lForeArm
          {
            OFFSET 28.1742 -1.7115 0.48768
            CHANNELS 3 Zrotation Xrotation Yrotation
            JOINT lHand
            {
              OFFSET 22.5879 0.773209 7.07136
              CHANNELS 3 Zrotation Xrotation Yrotation
              JOINT lThumb1
              {
                OFFSET 1.2192 -0.487915 3.41376
                CHANNELS 3 Zrotation Xrotation Yrotation
                JOINT lThumb2
                {
                  OFFSET 3.37035 -0.52449 3.41376
                  CHANNELS 3 Zrotation Xrotation Yrotation
                  End Site
                  {
                    OFFSET 1.78271 -1.18214 1.43049
                  }
                }
              }
              JOINT lIndex1
              {
                OFFSET 7.75947 0.938293 5.60832
                CHANNELS 3 Zrotation Xrotation Yrotation
                JOINT lIndex2
                {
                  OFFSET 2.54057 -0.884171 1.56538
                  CHANNELS 3 Zrotation Xrotation Yrotation
                  End Site
                  {
                    OFFSET 1.62519 -0.234802 1.16502
                  }
                }
              }
              JOINT lMid1
              {
                OFFSET 8.24714 1.18213 3.41376
                CHANNELS 3 Zrotation Xrotation Yrotation
                JOINT lMid2
                {
                  OFFSET 3.10165 -0.590103 1.0647
                  CHANNELS 3 Zrotation Xrotation Yrotation
                  End Site
                  {
                    OFFSET 2.48547 -0.328903 0.83742
                  }
                }
              }
              JOINT lRing1
              {
                OFFSET 8.82822 0.546677 1.51678
                CHANNELS 3 Zrotation Xrotation Yrotation
                JOINT lRing2
                {
                  OFFSET 2.60934 -0.819778 -0.0198488
                  CHANNELS 3 Zrotation Xrotation Yrotation
                  End Site
                  {
                    OFFSET 2.33842 -0.294052 0.168128
                  }
                }
              }
              JOINT lPinky1
              {
                OFFSET 8.27202 -0.0477905 -0.4584
                CHANNELS 3 Zrotation Xrotation Yrotation
                JOINT lPinky2
                {
                  OFFSET 1.82734 -0.647385 -0.700984
                  CHANNELS 3 Zrotation Xrotation Yrotation
                  End Site
                  {
                    OFFSET 1.69225 -0.51767 -0.607171
                  }
                }
              }
            }
          }
        }
      }
    }
  }
  JOINT rButtock
  {
    OFFSET -8.77824 4.35084 1.2192
    CHANNELS 3 Zrotation Xrotation Yrotation
    JOINT rThigh
    {
      OFFSET 0 -1.70687 -2.19456
      CHANNELS 3 Zrotation Xrotation Yrotation
      JOINT rShin
      {
        OFFSET 0 -36.8199 0.73152
        CHANNELS 3 Zrotation Xrotation Yrotation
        JOINT rFoot
        {
          OFFSET 0.73152 -45.1104 -5.12064
          CHANNELS 3 Zrotation Xrotation Yrotation
          End Site
          {
            OFFSET -1.1221 -3.69964 12.103
          }
        }
      }
    }
  }
  JOINT lButtock
  {
    OFFSET 8.77824 4.35084 1.2192
    CHANNELS 3 Zrotation Xrotation Yrotation
    JOINT lThigh
    {
      OFFSET 0 -1.70687 -2.19456
      CHANNELS 3 Zrotation Xrotation Yrotation
      JOINT lShin
      {
        OFFSET 0 -36.8199 0.73152
        CHANNELS 3 Zrotation Xrotation Yrotation
        JOINT lFoot
        {
          OFFSET -0.73152 -45.1104 -5.12064
          CHANNELS 3 Zrotation Xrotation Yrotation
          End Site
          {
            OFFSET 1.1221 -3.69964 12.103
          }
        }
      }
    }
  }
}
MOTION
Frames:	4
Frame Time:	0.03333
-0.21449999647077447 57.11799993427065 2.9540000400830393 8.85010051727295 -4.69920015335083 0.8071000576019287 -16.079500198364258 18.71299934387207 -1.423030138015747 8.572179794311523 -10.22710132598877 -0.307763934135437 -3.882190227508545 12.956600189208984 -1.9600898027420044 4.693090438842773 -27.009105682373047 -2.5631799697875977 -0.0 0.0 -0.0 -0.0 0.0 -0.0 -1.7706799568251164e-13 -5.841719930054293e-14 3.944169955374076e-14 75.10929870605469 48.09739685058594 -5.114371299743652 -25.86910057067871 -46.356201171875 96.59209442138672 -4.908839225769043 -51.56850051879883 -10.178799629211426 3.14953008118124e-10 -7.729109796628109e-09 5.172740014103283e-10 5.163959815313035e-10 -1.2517600289640995e-08 9.109309972998858e-10 3.1495700492101264e-10 -7.729119566590725e-09 5.172620110016624e-10 7.730909824371338 5.474879741668701 0.4173140823841095 3.1495098196110405e-10 -7.729109796628109e-09 5.172630102023845e-10 2.9055399894714355 0.9651829600334167 0.10290199518203735 3.1495700492101264e-10 -7.729119566590725e-09 5.172659522933998e-10 10.27859878540039 0.73180091381073 0.025912316516041756 3.149519811618262e-10 -7.729100026665492e-09 5.172740014103283e-10 2.221669912338257 -0.733487069606781 -0.208919957280159 -1.7730500227741697e-13 -5.841990302971056e-14 3.918779973373539e-14 -19.827499389648438 34.859310150146484 -65.83489990234375 14.698701858520508 -7.528600215911865 -27.002199172973633 4.236499786376953 49.34989547729492 -9.335689544677734 2.2765900276056072e-10 2.0555299684588135e-09 1.7044899935925173e-09 4.4529302467566367e-10 3.387250258057861e-09 2.9313200755609614e-09 2.2765499207988427e-10 2.0554999924371486e-09 1.7045099776069605e-09 -7.730909824371338 5.474879741668701 -0.4173140823841095 2.276619726071516e-10 2.0555299684588135e-09 1.7044998745774365e-09 -2.9055399894714355 0.9651829600334167 -0.10290199518203735 2.276539928791621e-10 2.0555299684588135e-09 1.7044899935925173e-09 -10.27859878540039 0.73180091381073 -0.025912316516041756 2.2766701024412583e-10 2.0555299684588135e-09 1.7044798905629932e-09 -2.221669912338257 -0.733487069606781 0.208919957280159 -2.0321699480147914e-16 0.0 -3.8825099822884138e-19 -19.632898330688477 -68.39249420166016 -20.26599884033203 -125.0040054321289 88.62983703613281 125.06200408935547 -2.0942697525024414 -6.779150009155273 -4.206489562988281 2.0321699480147914e-16 0.0 3.8825099822884138e-19 -4.91202974319458 -29.386606216430664 12.954000473022461 1.6570500135421753 70.84520721435547 -3.638169765472412 14.390196800231934 -20.06300163269043 34.26679992675781
-0.5486900001412442 57.29909898501895 5.785000112601784 8.812000274658203 -1.5257999897003174 0.07980000972747803 -15.366399765014648 18.76129913330078 -1.5553901195526123 8.642478942871094 -10.271900177001953 -0.2651141583919525 -4.600409507751465 13.156400680541992 -2.9670400619506836 5.160590648651123 -25.980798721313477 -4.462460517883301 -0.0 0.0 -0.0 -0.0 0.0 -0.0 -2.0252999920048788e-14 -9.365549785353422e-14 4.459449573935431e-14 63.79570007324219 44.306297302246094 7.243419647216797 -25.25750160217285 -47.42549514770508 98.96029663085938 -3.490060329437256 -45.79819869995117 -8.290071487426758 -5.825580018381515e-10 -3.942689730251914e-09 -4.2665196375857306e-10 -9.946079515543715e-10 -6.477660186021694e-09 -7.509079469336655e-10 -5.825540050352629e-10 -3.94269994430374e-09 -4.266589581636282e-10 7.730909824371338 5.474879741668701 0.4173140823841095 -5.825599447284446e-10 -3.94269994430374e-09 -4.266540176711686e-10 2.9055399894714355 0.9651829600334167 0.10290199518203735 -5.825570026374294e-10 -3.94269994430374e-09 -4.266509645578509e-10 10.27859878540039 0.73180091381073 0.025912316516041756 -5.825589455277225e-10 -3.942689730251914e-09 -4.266380027040384e-10 2.221669912338257 -0.733487069606781 -0.208919957280159 -2.0488798645971334e-14 -9.365080190287464e-14 4.4301798422232905e-14 -18.632299423217773 38.01650619506836 -68.6209945678711 16.317800521850586 -8.930449485778809 -30.53470230102539 8.672179222106934 61.20719528198242 -14.709096908569336 3.3673397403788385e-10 -1.292529971941292e-10 -1.818930006614039e-10 5.556070048484685e-10 -1.4997798836180465e-10 -3.269229886804226e-10 3.3673097643571737e-10 -1.2930299886360075e-10 -1.8186799288777422e-10 -7.730909824371338 5.474879741668701 -0.4173140823841095 3.3673500099418163e-10 -1.2925499559557352e-10 -1.8188699157928312e-10 -2.9055399894714355 0.9651829600334167 -0.10290199518203735 3.3672598043210655e-10 -1.2925599479629568e-10 -1.8189100225995958e-10 -10.27859878540039 0.73180091381073 -0.025912316516041756 3.367360001949038e-10 -1.2925499559557352e-10 -1.818979827872269e-10 -2.221669912338257 -0.733487069606781 0.208919957280159 -2.0321699480147914e-16 0.0 -3.8825099822884138e-19 -24.312196731567383 -69.68919372558594 -23.8030948638916 -8.900490760803223 83.5645523071289 8.915989875793457 -1.2462300062179565 -5.1732001304626465 -0.6601450443267822 2.0321699480147914e-16 0.0 3.8825099822884138e-19 -5.5761895179748535 -25.411701202392578 10.330899238586426 1.3870400190353394 69.30702209472656 -3.620420217514038 14.790897369384766 -21.398698806762695 34.37379837036133
-0.9455699879741769 57.653701916158504 8.462000123347664 8.527799606323242 1.6413002014160156 -0.5720999240875244 -14.208799362182617 18.587100982666016 -1.4335393905639648 8.760708808898926 -10.181300163269043 -0.14070303738117218 -5.50985050201416 13.729798316955566 -3.9758706092834473 5.65457010269165 -25.32990074157715 -6.381420135498047 -0.0 0.0 -0.0 -0.0 0.0 -0.0 3.591869640259815e-14 -3.1921097302977167e-14 -4.248319835568719e-14 54.53030014038086 36.9109992980957 18.286495208740234 -25.732101440429688 -46.64679718017578 97.2313003540039 -2.7766504287719727 -41.8296012878418 -7.23521089553833 -4.462969993568322e-10 -8.064519607664522e-10 -3.740280030140042e-10 -7.563439874402889e-10 -1.356909917760163e-09 -6.601759694468967e-10 -4.462890335066305e-10 -8.064469092516902e-10 -3.740379950212258e-10 7.730909824371338 5.474879741668701 0.4173140823841095 -4.4629497319981226e-10 -8.064469092516902e-10 -3.7403100061617067e-10 2.9055399894714355 0.9651829600334167 0.10290199518203735 -4.4629000495177706e-10 -8.064459655621192e-10 -3.740280030140042e-10 10.27859878540039 0.73180091381073 0.025912316516041756 -4.462969993568322e-10 -8.0645096156573e-10 -3.7401798325120694e-10 2.221669912338257 -0.733487069606781 -0.208919957280159 3.5724898652398154e-14 -3.191469712202771e-14 -4.276819783738395e-14 -20.54680061340332 42.43340301513672 -68.3744888305664 18.64499855041504 -11.422199249267578 -35.50859451293945 10.822999954223633 64.01360321044922 -16.967599868774414 3.7448397161021774e-10 -1.2990498676757056e-09 -9.045089677250928e-10 5.980200223909549e-10 -2.091639750290142e-09 -1.5722699808762286e-09 3.744740073585717e-10 -1.299090057749197e-09 -9.044759941012614e-10 -7.730909824371338 5.474879741668701 -0.4173140823841095 3.7447597800444044e-10 -1.2990498676757056e-09 -9.045010296304667e-10 -2.9055399894714355 0.9651829600334167 -0.10290199518203735 3.7446698519794097e-10 -1.2990498676757056e-09 -9.04503971721482e-10 -10.27859878540039 0.73180091381073 -0.025912316516041756 3.7448297240949557e-10 -1.2990599707052297e-09 -9.045100224369662e-10 -2.221669912338257 -0.733487069606781 0.208919957280159 -2.0321699480147914e-16 0.0 -3.8825099822884138e-19 -27.352800369262695 -69.36050415039062 -24.921096801757812 -3.4040896892547607 75.529296875 3.390819787979126 -0.5752649307250977 -0.9189399480819702 2.973360061645508 2.0321699480147914e-16 0.0 3.8825099822884138e-19 -5.3698601722717285 -21.55900001525879 8.140910148620605 1.1552400588989258 67.47640228271484 -3.5074799060821533 15.006501197814941 -22.528600692749023 34.266197204589844
-1.3230699810478594 58.149197989497075 10.997000074362155 8.275300025939941 4.545100212097168 -1.272900104522705 -12.602800369262695 18.189998626708984 -1.058769702911377 8.925580024719238 -9.95542049407959 0.06524099409580231 -6.589890003204346 14.675198554992676 -4.992400169372559 6.132390022277832 -25.053600311279297 -8.337799072265625 -0.0 0.0 -0.0 -0.0 0.0 -0.0 -8.552920267097981e-15 1.2678599218673287e-13 -2.2179199937136934e-13 48.60820007324219 26.714399337768555 27.828798294067383 -26.82950210571289 -43.71039581298828 92.05709838867188 -2.425999879837036 -39.692100524902344 -6.702660083770752 7.237349608502086e-10 1.6796198876178892e-09 6.751459391551862e-10 1.2311900388084496e-09 2.8446798250314487e-09 1.1831299273623586e-09 7.237510035729144e-10 1.6796399826546349e-09 6.75125011451172e-10 7.730909824371338 5.474879741668701 0.4173140823841095 7.23748005970748e-10 1.6796399826546349e-09 6.751299519436316e-10 2.9055399894714355 0.9651829600334167 0.10290199518203735 7.237569432660962e-10 1.6796399826546349e-09 6.751340042576714e-10 10.27859878540039 0.73180091381073 0.025912316516041756 7.237359600509308e-10 1.6796198876178892e-09 6.751330050569493e-10 2.221669912338257 -0.733487069606781 -0.208919957280159 -8.66388920648482e-15 1.2678799796075196e-13 -2.2202198575720783e-13 -26.481597900390625 48.184303283691406 -64.14730072021484 21.168895721435547 -14.512399673461914 -42.11389923095703 7.829460144042969 58.01969909667969 -13.364099502563477 3.409099669227089e-10 -1.4538699133481714e-09 -4.633549655075342e-10 5.725319662808204e-10 -2.4377300178457517e-09 -8.047329469462738e-10 3.408839877039327e-10 -1.4538599213409498e-09 -4.63316995880092e-10 -7.730909824371338 5.474879741668701 -0.4173140823841095 3.408839877039327e-10 -1.4538599213409498e-09 -4.633459727010347e-10 -2.9055399894714355 0.9651829600334167 -0.10290199518203735 3.4087699329887755e-10 -1.4538599213409498e-09 -4.633459727010347e-10 -10.27859878540039 0.73180091381073 -0.025912316516041756 3.409109938790067e-10 -1.4538699133481714e-09 -4.633529948616655e-10 -2.221669912338257 -0.733487069606781 0.208919957280159 -2.0321699480147914e-16 0.0 -3.8825099822884138e-19 -28.614002227783203 -67.45958709716797 -23.502599716186523 -1.7327401638031006 66.51399993896484 1.6963897943496704 -0.6053669452667236 5.921760082244873 6.750469207763672 2.0321699480147914e-16 0.0 3.8825099822884138e-19 -4.399660110473633 -17.86480140686035 6.306860446929932 0.9877500534057617 65.35299682617188 -3.3249900341033936 15.02450180053711 -23.456302642822266 33.93040084838867
